#!OML:ASF E:\Steps\Project 1\Capture day 1\Session 2\Subject.ASF
:FULLY-SPECIFIED
:DEGREES
786
root 16.8477 15.4741 -16.3046 -120.292 -80.3083 150.453
lowerback -26.1516 1.76902 -8.55814
upperback 0.257923 5.49474 -4.96416
thorax 14.7536 1.96537 1.17387
lowerneck -18.9462 -0.681396 -9.57599
upperneck 52.6035 0.105002 -2.78869
head 32.2794 -3.43672 -0.72735
rclavicle -1.78906e-014 1.59028e-014
rhumerus -23.1675 4.22826 -89.1358
rradius 42.1515
rwrist -9.24079
rhand -4.08666 -53.3454
rfingers 7.12502
rthumb 21.6707 -442.153
lclavicle -1.78906e-014 1.59028e-014
lhumerus -37.7466 18.3812 66.6307
lradius 14.1951
lwrist -14.442
lhand -21.8117 -10.488
lfingers 7.12502
lthumb 4.59064 19.4422
rfemur -9.01101 1.35866 20.0521
rtibia 9.90703
rfoot -26.4774 -19.1963
rtoes -33.8006
lfemur -51.3358 -6.04587 -16.7223
ltibia 11.0545
lfoot -0.517432 10.2347
ltoes -39.6662
787
root 16.7022 15.4751 -16.2889 -118.961 -80.555 148.959
lowerback -26.1336 1.64728 -8.64022
upperback 0.224964 5.36059 -5.06026
thorax 14.7167 1.90371 1.05742
lowerneck -19.0402 -0.557149 -9.29994
upperneck 52.6022 0.108221 -2.59719
head 32.3477 -3.36658 -0.647638
rclavicle -3.29983e-014 2.62396e-014
rhumerus -23.5193 3.55714 -89.2105
rradius 41.9786
rwrist -9.0784
rhand -3.33136 -53.0296
rfingers 7.12502
rthumb 22.3959 -441.751
lclavicle -3.29983e-014 2.62396e-014
lhumerus -38.2606 20.8664 64.6374
lradius 13.3435
lwrist -16.6366
lhand -20.4938 -10.7637
lfingers 7.12502
lthumb 5.86307 19.1352
rfemur -8.75283 0.996619 19.9402
rtibia 10.8219
rfoot -25.5744 -19.3353
rtoes -36.4727
lfemur -50.7952 -6.0551 -17.3098
ltibia 11.034
lfoot 0.340497 9.55534
ltoes -38.1001
788
root 16.56 15.4808 -16.2742 -117.4 -80.8429 147.211
lowerback -26.0343 1.47136 -8.72244
upperback 0.190379 5.13944 -5.11702
thorax 14.6332 1.80429 0.95219
lowerneck -19.0823 -0.368416 -8.81168
upperneck 52.5487 0.215743 -2.5667
head 32.1812 -3.21912 -0.681773
rclavicle 1.94809e-014 4.85035e-014
rhumerus -23.8608 2.67803 -89.2817
rradius 41.6965
rwrist -8.66678
rhand -3.15992 -52.7348
rfingers 7.12502
rthumb 22.5605 -441.437
lclavicle 1.94809e-014 4.85035e-014
lhumerus -38.7755 22.6131 63.1414
lradius 12.6726
lwrist -18.004
lhand -19.7978 -10.092
lfingers 7.12502
lthumb 6.535 19.7872
rfemur -8.52667 1.08413 19.8598
rtibia 11.8088
rfoot -24.9729 -19.5966
rtoes -36.9236
lfemur -50.2647 -6.19602 -17.7055
ltibia 11.0935
lfoot 0.784992 8.74775
ltoes -35.4506
789
root 16.4172 15.4932 -16.2555 -115.677 -80.9142 145.312
lowerback -25.9657 1.25783 -8.91797
upperback 0.174232 4.90478 -5.14858
thorax 14.5784 1.6869 0.935893
lowerneck -19.1293 -0.261211 -8.68528
upperneck 52.5419 0.37737 -2.62706
head 32.1887 -3.15095 -0.70732
rclavicle -2.0276e-014 3.26007e-014
rhumerus -24.2088 1.93 -89.2696
rradius 41.3784
rwrist -8.17702
rhand -3.50306 -52.435
rfingers 7.12502
rthumb 22.2311 -441.176
lclavicle -2.0276e-014 3.26007e-014
lhumerus -39.4379 25.0577 61.3289
lradius 11.859
lwrist -20.0935
lhand -19.6788 -9.32775
lfingers 7.12502
lthumb 6.64988 20.5478
rfemur -8.519 0.831879 19.528
rtibia 13.1309
rfoot -24.3977 -19.5351
rtoes -37.1806
lfemur -49.7524 -5.96179 -18.6863
ltibia 11.3728
lfoot 1.64832 7.39974
ltoes -36.7628
790
root 16.2689 15.508 -16.2401 -113.206 -80.7943 142.735
lowerback -26.0604 0.990247 -9.44231
upperback 0.199116 4.72248 -5.17867
thorax 14.6376 1.56002 1.12801
lowerneck -19.2857 -0.26132 -8.79877
upperneck 52.5485 0.437695 -2.60569
head 32.3859 -3.16444 -0.665326
rclavicle 7.15625e-015 5.1684e-014
rhumerus -24.5748 1.36185 -89.0952
rradius 41.1198
rwrist -7.8846
rhand -4.46436 -52.6698
rfingers 7.12502
rthumb 21.308 -441.518
lclavicle 7.15625e-015 5.1684e-014
lhumerus -40.3756 28.3722 58.8822
lradius 10.9231
lwrist -23.4126
lhand -19.4106 -9.20313
lfingers 7.12502
lthumb 6.90881 20.6641
rfemur -8.77858 -0.239176 18.9115
rtibia 14.8595
rfoot -23.6658 -18.9564
rtoes -38.9615
lfemur -49.3172 -5.83819 -19.8073
ltibia 11.8136
lfoot 2.17413 6.38341
ltoes -36.1151
791
root 16.1194 15.5245 -16.2318 -111.541 -80.8053 141.068
lowerback -26.2862 0.801697 -9.93079
upperback 0.190991 4.64595 -5.17512
thorax 14.7239 1.48026 1.38151
lowerneck -19.2827 -0.340782 -8.91654
upperneck 52.5999 0.32154 -2.59528
head 32.5645 -3.2338 -0.68416
rclavicle -3.77691e-014 5.1684e-014
rhumerus -25.025 0.590871 -88.9162
rradius 40.8979
rwrist -8.01945
rhand -6.36614 -53.6157
rfingers 7.12502
rthumb 19.4804 -442.66
lclavicle -3.77691e-014 5.1684e-014
lhumerus -41.166 30.8582 56.7403
lradius 10.0288
lwrist -26.3165
lhand -18.8196 -9.17305
lfingers 7.12502
lthumb 7.47925 20.6747
rfemur -9.22743 -1.10022 18.5754
rtibia 16.6891
rfoot -22.4287 -18.7201
rtoes -42.0717
lfemur -48.9848 -5.72657 -20.4903
ltibia 12.2906
lfoot 2.28025 5.88792
ltoes -33.3732
792
root 15.9777 15.5518 -16.2225 -110.899 -81.0315 140.465
lowerback -26.4282 0.717464 -10.1242
upperback 0.495091 4.61578 -5.14632
thorax 14.3472 1.43058 1.56598
lowerneck -19.2431 -0.386182 -8.8138
upperneck 52.6271 0.1968 -2.64929
head 32.6166 -3.25295 -0.78866
rclavicle 9.93923e-015 -4.77083e-015
rhumerus -25.5404 -0.786004 -88.6389
rradius 40.6015
rwrist -7.83228
rhand -6.30219 -53.7513
rfingers 7.12502
rthumb 19.5418 -442.789
lclavicle 9.93923e-015 -4.77083e-015
lhumerus -40.7052 30.5328 57.2468
lradius 9.2183
lwrist -26.6012
lhand -19.0572 -8.91572
lfingers 7.12502
lthumb 7.24991 20.9401
rfemur -9.86813 -1.1898 18.5729
rtibia 18.6473
rfoot -21.4945 -18.4058
rtoes -41.7453
lfemur -48.7129 -5.49529 -20.8518
ltibia 12.7833
lfoot 2.28675 5.40744
ltoes -33.8237
793
root 15.8413 15.5858 -16.21 -109.734 -81.3131 139.213
lowerback -26.3276 0.679555 -10.112
upperback 0.098521 4.52915 -5.17174
thorax 14.6308 1.41839 1.44507
lowerneck -19.4328 -0.336233 -8.48442
upperneck 52.5561 0.107696 -2.48834
head 32.5995 -3.18729 -0.758011
rclavicle 2.18663e-014 6.67916e-014
rhumerus -26.1196 -2.29311 -88.3778
rradius 40.3817
rwrist -7.33416
rhand -5.33487 -53.4953
rfingers 7.12502
rthumb 20.4716 -442.436
lclavicle 2.18663e-014 6.67916e-014
lhumerus -40.2567 30.1762 57.6887
lradius 8.5979
lwrist -27.5335
lhand -20.4165 -8.54145
lfingers 7.12502
lthumb 5.9377 21.3553
rfemur -10.5514 -1.32688 18.5529
rtibia 20.9204
rfoot -21.0507 -17.7105
rtoes -38.1794
lfemur -48.2971 -5.61836 -21.0155
ltibia 13.2218
lfoot 2.12628 5.12799
ltoes -36.3403
794
root 15.6927 15.6213 -16.1862 -108.723 -81.4673 137.79
lowerback -26.0582 0.727236 -9.98404
upperback 0.159092 4.54511 -5.34795
thorax 14.5787 1.44586 1.16655
lowerneck -19.5561 -0.255072 -8.12712
upperneck 52.5044 0.00631513 -2.26612
head 32.5613 -3.11837 -0.692041
rclavicle 2.38542e-015 9.54166e-015
rhumerus -26.769 -3.53549 -88.2797
rradius 40.1823
rwrist -6.99871
rhand -5.03428 -53.5762
rfingers 7.12502
rthumb 20.7605 -442.486
lclavicle 2.38542e-015 9.54166e-015
lhumerus -39.5966 30.0674 58.4498
lradius 7.9088
lwrist -27.6931
lhand -22.0988 -7.57213
lfingers 7.12502
lthumb 4.31335 22.3639
rfemur -10.9304 -1.92941 18.33
rtibia 23.2711
rfoot -20.1049 -16.9806
rtoes -35.6009
lfemur -47.3505 -5.83255 -21.3531
ltibia 13.4153
lfoot 1.98883 4.79277
ltoes -39.7322
795
root 15.5485 15.6553 -16.1473 -105.554 -81.5294 134.445
lowerback -25.981 0.670036 -9.99328
upperback 0.179064 4.47776 -5.4724
thorax 14.577 1.4197 0.99928
lowerneck -19.5109 -0.343599 -8.18798
upperneck 52.5555 -0.165468 -2.23432
head 32.6949 -3.18672 -0.719046
rclavicle 6.36111e-015 -7.07673e-014
rhumerus -27.4276 -4.4712 -87.97
rradius 39.9868
rwrist -7.10845
rhand -5.65784 -53.8905
rfingers 7.12502
rthumb 20.1612 -442.864
lclavicle 6.36111e-015 -7.07673e-014
lhumerus -39.1939 29.5044 58.7598
lradius 7.65782
lwrist -27.1136
lhand -21.9095 -7.21827
lfingers 7.12502
lthumb 4.49618 22.714
rfemur -11.7269 -3.34939 17.7302
rtibia 25.7686
rfoot -18.5794 -16.1699
rtoes -34.7134
lfemur -46.7119 -6.19263 -22.1042
ltibia 13.6012
lfoot 1.90321 4.09932
ltoes -42.3533
796
root 15.4031 15.6742 -16.1223 -103.16 -82.0051 132.028
lowerback -26.2117 0.591603 -9.74527
upperback 0.247927 4.33293 -5.3526
thorax 14.8093 1.3589 0.951474
lowerneck -19.6194 -0.424046 -8.26836
upperneck 52.5287 -0.235141 -2.22467
head 32.759 -3.22019 -0.717582
rclavicle 1.90833e-014 -7.95139e-014
rhumerus -27.9067 -5.2436 -87.4873
rradius 39.7521
rwrist -7.4215
rhand -5.74367 -54.1512
rfingers 7.12502
rthumb 20.0787 -443.134
lclavicle 1.90833e-014 -7.95139e-014
lhumerus -38.6952 29.2148 59.4201
lradius 7.40003
lwrist -26.7674
lhand -21.3906 -7.05979
lfingers 7.12502
lthumb 4.9972 22.8613
rfemur -12.7194 -4.71879 17.7365
rtibia 28.3085
rfoot -16.7703 -15.6078
rtoes -34.9115
lfemur -46.257 -6.31372 -22.3665
ltibia 13.7748
lfoot 1.74548 3.28027
ltoes -43.1635
797
root 15.2574 15.6935 -16.0913 -101.926 -82.0801 130.827
lowerback -26.542 0.543432 -9.6492
upperback 0.646267 4.31663 -5.43932
thorax 14.677 1.32182 0.896443
lowerneck -19.8146 -0.338896 -8.05105
upperneck 52.4713 -0.152356 -2.19097
head 32.7846 -3.13797 -0.710011
rclavicle 1.11319e-014 -7.95139e-016
rhumerus -28.3324 -5.96055 -87.2151
rradius 39.459
rwrist -7.63917
rhand -4.65707 -54.2437
rfingers 7.12502
rthumb 21.1229 -443.113
lclavicle 1.11319e-014 -7.95139e-016
lhumerus -38.0443 29.1058 60.0002
lradius 6.9881
lwrist -26.4846
lhand -21.3376 -6.98776
lfingers 7.12502
lthumb 5.04836 22.9321
rfemur -13.8727 -5.54933 17.4283
rtibia 30.9133
rfoot -14.8199 -15.1074
rtoes -33.8991
lfemur -45.696 -6.58012 -22.674
ltibia 13.7573
lfoot 1.44554 3.03485
ltoes -41.2757
798
root 15.1215 15.7212 -16.065 -100.699 -82.2336 129.55
lowerback -26.5405 0.513195 -9.55695
upperback 0.603961 4.24884 -5.50449
thorax 14.6457 1.30191 0.751693
lowerneck -19.8853 -0.295069 -7.84387
upperneck 52.4765 -0.207603 -2.13616
head 32.8784 -3.10614 -0.735921
rclavicle -1.70955e-014 2.94201e-014
rhumerus -28.9209 -6.38992 -87.1158
rradius 39.2919
rwrist -8.36467
rhand -3.4964 -54.4157
rfingers 7.12502
rthumb 22.2375 -443.156
lclavicle -1.70955e-014 2.94201e-014
lhumerus -37.9944 28.696 60.1839
lradius 7.31198
lwrist -25.8197
lhand -20.7568 -7.22335
lfingers 7.12502
lthumb 5.60917 22.6824
rfemur -15.0806 -6.12967 17.2342
rtibia 33.5861
rfoot -12.7429 -14.8189
rtoes -31.8554
lfemur -45.0784 -6.78868 -22.8208
ltibia 13.7449
lfoot 1.13364 2.93454
ltoes -37.7303
799
root 14.994 15.7505 -16.0441 -99.5238 -82.5672 128.28
lowerback -26.3756 0.454019 -9.43042
upperback 0.55562 4.09608 -5.44029
thorax 14.5226 1.24955 0.696168
lowerneck -19.992 -0.286544 -7.57108
upperneck 52.4396 -0.277611 -2.19786
head 32.8821 -3.06353 -0.859472
rclavicle -2.14687e-014 2.70347e-014
rhumerus -29.488 -6.62759 -86.9056
rradius 39.0877
rwrist -8.92949
rhand -3.17101 -54.5797
rfingers 7.12502
rthumb 22.5498 -443.283
lclavicle -2.14687e-014 2.70347e-014
lhumerus -38.0456 28.2777 60.3101
lradius 7.96862
lwrist -25.1065
lhand -19.0858 -7.42774
lfingers 7.12502
lthumb 7.22229 22.429
rfemur -16.4207 -6.65337 17.2964
rtibia 36.4546
rfoot -10.6966 -14.8629
rtoes -30.9473
lfemur -44.5099 -6.49396 -23.0732
ltibia 13.8394
lfoot 0.932018 2.32615
ltoes -36.3589
800
root 14.8695 15.7765 -16.022 -98.9665 -82.7602 127.665
lowerback -26.2837 0.369584 -9.41226
upperback 0.156531 3.92515 -5.25955
thorax 14.783 1.20161 0.724924
lowerneck -20.1052 -0.290201 -7.59437
upperneck 52.4261 -0.22014 -2.26546
head 32.9769 -3.05642 -0.894241
rclavicle 7.55382e-015 -3.18055e-015
rhumerus -29.9586 -6.86194 -86.5151
rradius 38.7308
rwrist -8.70246
rhand -3.54999 -54.6139
rfingers 7.12502
rthumb 22.186 -443.361
lclavicle 7.55382e-015 -3.18055e-015
lhumerus -37.9783 28.2637 60.8559
lradius 8.43794
lwrist -24.7987
lhand -18.1701 -7.44147
lfingers 7.12502
lthumb 8.10615 22.3831
rfemur -17.926 -7.12213 17.2894
rtibia 39.4622
rfoot -8.59948 -14.9458
rtoes -31.0256
lfemur -43.9377 -6.28899 -23.3575
ltibia 13.8657
lfoot 0.668883 1.87994
ltoes -37.0047
